<?xml version="1.0" encoding="utf-8"?>
<!-- Generator: Adobe Illustrator 16.0.4, SVG Export Plug-In . SVG Version: 6.00 Build 0)  -->
<!DOCTYPE svg PUBLIC "-//W3C//DTD SVG 1.1//EN" "http://www.w3.org/Graphics/SVG/1.1/DTD/svg11.dtd">
<svg version="1.1" id="Layer_1" xmlns="http://www.w3.org/2000/svg" xmlns:xlink="http://www.w3.org/1999/xlink" x="0px" y="0px"
	 width="31px" height="35px" viewBox="0 0 31 35" enable-background="new 0 0 31 35" xml:space="preserve">
<path fill="#B8365A" d="M27.83,11.76c0.62-0.83,1-1.86,1-2.98c0-2.77-2.26-5.02-5.04-5.02c-0.851,0-1.63,0.23-2.33,0.59
	C20.529,1.82,18.09,0,15.22,0c-2.87,0-5.31,1.82-6.24,4.35C8.28,3.99,7.5,3.76,6.65,3.76c-2.78,0-5.04,2.25-5.04,5.02
	c0,1.24,0.47,2.36,1.22,3.24C1.11,13.33,0,15.39,0,17.71c0,3.91,3.14,7.08,7.04,7.17c-2.34-2.17-2.7-5.569-2.71-5.729l-0.09-0.94
	l0.91-0.25c0.05-0.01,1.27-0.34,2.86-0.34c1.63,0,3.06,0.33,4.25,0.989c0.7-2.199,2.38-3.739,2.47-3.819l0.75-0.68l0.76,0.68
	c0.09,0.08,1.76,1.62,2.47,3.819c1.181-0.659,2.61-0.989,4.24-0.989c1.59,0,2.81,0.33,2.86,0.34l0.989,0.27l-0.18,1
	c-0.03,0.16-0.64,3.51-3,5.649l0.17,0.011c3.979,0,7.21-3.221,7.21-7.181C31,15.23,29.74,13.05,27.83,11.76z"/>
<path fill="#B8365A" d="M18.96,19.76c-0.41,0.26-0.76,0.561-1.08,0.891c0-0.051,0.021-0.101,0.021-0.15c0-2.7-2.42-4.88-2.42-4.88
	s-2.41,2.18-2.41,4.88c0,0.05,0.02,0.1,0.02,0.15c-0.32-0.33-0.68-0.631-1.08-0.891c-2.76-1.75-6.57-0.72-6.57-0.72
	s0.42,3.87,3.18,5.62c1.97,1.24,4.42,1.08,5.47,0.88v8.62c0,0.46,0.59,0.84,1.06,0.84c0.46,0,1.05-0.37,1.05-0.84v-8.631
	c1.06,0.201,3.84,0.4,5.85-0.869c2.761-1.75,3.45-5.62,3.45-5.62S21.721,18.01,18.96,19.76z"/>
</svg>
