<?xml version="1.0" encoding="utf-8"?>
<!-- Generator: Adobe Illustrator 16.0.4, SVG Export Plug-In . SVG Version: 6.00 Build 0)  -->
<!DOCTYPE svg PUBLIC "-//W3C//DTD SVG 1.1//EN" "http://www.w3.org/Graphics/SVG/1.1/DTD/svg11.dtd">
<svg version="1.1" id="Layer_1" xmlns="http://www.w3.org/2000/svg" xmlns:xlink="http://www.w3.org/1999/xlink" x="0px" y="0px"
	 width="25px" height="35px" viewBox="0 0 25 35" enable-background="new 0 0 25 35" xml:space="preserve">
<path fill="#44B23D" d="M25,23.33C25,29.779,19.4,35,12.5,35C5.6,35,0,29.77,0,23.33c0-1.83,0.42-3.58,1.26-5.11
	c0.82-1.5,0.92-1.46,2.07-3.05c1.33-1.84,3.12-4.24,4.58-6.61C10.63,4.18,12.5,0,12.5,0s1.85,4.15,4.58,8.56
	c1.47,2.36,3.25,4.76,4.59,6.61c1.16,1.61,1.25,1.55,2.09,3.1C24.59,19.779,25,21.52,25,23.33z"/>
</svg>
