<?xml version="1.0" encoding="utf-8"?>
<!-- Generator: Adobe Illustrator 16.0.4, SVG Export Plug-In . SVG Version: 6.00 Build 0)  -->
<!DOCTYPE svg PUBLIC "-//W3C//DTD SVG 1.1//EN" "http://www.w3.org/Graphics/SVG/1.1/DTD/svg11.dtd">
<svg version="1.1" id="Layer_1" xmlns="http://www.w3.org/2000/svg" xmlns:xlink="http://www.w3.org/1999/xlink" x="0px" y="0px"
	 width="18px" height="25px" viewBox="0 0 18 25" enable-background="new 0 0 18 25" xml:space="preserve">
<path fill="#DDDDDD" d="M17.109,13.05c-0.609-1.11-0.68-1.06-1.51-2.22c-0.959-1.32-2.25-3.03-3.3-4.72C10.35,2.99,9.02,0.05,9,0
	c0,0-1.35,2.98-3.3,6.11c-1.06,1.7-2.35,3.41-3.3,4.72c-0.83,1.14-0.9,1.11-1.49,2.18C0.3,14.109,0,15.359,0,16.67
	C0,21.27,4.03,25,9,25c4.971,0,9-3.73,9-8.33C18,15.37,17.71,14.13,17.109,13.05z"/>
</svg>
