<?xml version="1.0" encoding="utf-8"?>
<!-- Generator: Adobe Illustrator 16.0.4, SVG Export Plug-In . SVG Version: 6.00 Build 0)  -->
<!DOCTYPE svg PUBLIC "-//W3C//DTD SVG 1.1//EN" "http://www.w3.org/Graphics/SVG/1.1/DTD/svg11.dtd">
<svg version="1.1" id="Layer_1" xmlns="http://www.w3.org/2000/svg" xmlns:xlink="http://www.w3.org/1999/xlink" x="0px" y="0px"
	 width="18px" height="25px" viewBox="0 0 18 25" enable-background="new 0 0 18 25" xml:space="preserve">
<path fill="#2E7CBC" d="M9,25c-4.97,0-9-3.73-9-8.33c0-1.311,0.3-2.561,0.91-3.66c0.59-1.07,0.66-1.04,1.49-2.18
	c0.95-1.31,2.24-3.02,3.3-4.72C7.65,2.98,9,0,9,0C9.02,0.05,9,25,9,25z"/>
<path fill="#49B044" d="M9,0c0.02,0.05,1.35,2.99,3.3,6.11c1.05,1.69,2.341,3.4,3.3,4.72c0.83,1.16,0.9,1.11,1.51,2.22
	C17.71,14.13,18,15.37,18,16.67c0,4.6-4.029,8.33-9,8.33V0z"/>
</svg>
