<?xml version="1.0" encoding="utf-8"?>
<!-- Generator: Adobe Illustrator 16.0.4, SVG Export Plug-In . SVG Version: 6.00 Build 0)  -->
<!DOCTYPE svg PUBLIC "-//W3C//DTD SVG 1.1//EN" "http://www.w3.org/Graphics/SVG/1.1/DTD/svg11.dtd">
<svg version="1.1" id="Layer_1" xmlns="http://www.w3.org/2000/svg" xmlns:xlink="http://www.w3.org/1999/xlink" x="0px" y="0px"
	 width="18px" height="25px" viewBox="0 0 18 25" enable-background="new 0 0 18 25" xml:space="preserve">
<path fill="#9098A5" d="M17.109,13.05c-0.609-1.11-0.68-1.06-1.51-2.22c-0.959-1.32-2.25-3.03-3.3-4.72C10.35,2.99,9.02,0.05,9,0
	c0,0-1.35,2.98-3.3,6.11c-1.06,1.7-2.35,3.41-3.3,4.72c-0.83,1.14-0.9,1.11-1.49,2.18C0.3,14.109,0,15.359,0,16.67
	C0,21.27,4.03,25,9,25c4.971,0,9-3.73,9-8.33C18,15.37,17.71,14.13,17.109,13.05z M9.163,23.998l-0.162-0.056
	C9.004,20.261,9.012,7.936,9.008,2.555l0.058-0.138c0.598,1.164,1.427,2.688,2.385,4.22c0.891,1.434,1.964,2.898,2.825,4.075
	l0.511,0.7c0.271,0.379,0.464,0.632,0.62,0.838c0.315,0.416,0.446,0.588,0.829,1.285C16.743,14.448,17,15.502,17,16.67
	C17,20.662,13.499,23.919,9.163,23.998z"/>
</svg>
