<?xml version="1.0" encoding="utf-8"?>
<!-- Generator: Adobe Illustrator 16.0.4, SVG Export Plug-In . SVG Version: 6.00 Build 0)  -->
<!DOCTYPE svg PUBLIC "-//W3C//DTD SVG 1.1//EN" "http://www.w3.org/Graphics/SVG/1.1/DTD/svg11.dtd">
<svg version="1.1" id="Layer_1" xmlns="http://www.w3.org/2000/svg" xmlns:xlink="http://www.w3.org/1999/xlink" x="0px" y="0px"
	 width="18px" height="18px" viewBox="12.026 11.026 18 18" enable-background="new 12.026 11.026 18 18" xml:space="preserve">
<path fill="#333333" d="M21.026,11.026c-4.971,0-9,4.029-9,9c0,2.836,1.313,5.365,3.364,7.014l-3.364,1.986h9c4.971,0,9-4.029,9-9
	S25.996,11.026,21.026,11.026z M20.795,25.256c-0.398,0-0.721-0.323-0.721-0.722c0-0.398,0.323-0.721,0.721-0.721
	c0.399,0,0.722,0.323,0.722,0.721C21.517,24.933,21.194,25.256,20.795,25.256z M21.492,20.866v1.501
	c0,0.385-0.312,0.697-0.697,0.697c-0.384,0-0.697-0.312-0.697-0.697v-2.116c0-0.385,0.312-0.697,0.697-0.697l0,0
	c0.93,0,1.682-0.753,1.682-1.682c0-0.93-0.752-1.682-1.682-1.682c-0.929,0-1.682,0.752-1.682,1.682c0,0.384-0.312,0.696-0.698,0.696
	c-0.384,0-0.697-0.312-0.697-0.696c0-1.699,1.377-3.076,3.076-3.076c1.699,0,3.076,1.377,3.076,3.076
	C23.871,19.331,22.855,20.55,21.492,20.866z"/>
</svg>
