<?xml version="1.0" encoding="utf-8"?>
<!-- Generator: Adobe Illustrator 16.0.4, SVG Export Plug-In . SVG Version: 6.00 Build 0)  -->
<!DOCTYPE svg PUBLIC "-//W3C//DTD SVG 1.1//EN" "http://www.w3.org/Graphics/SVG/1.1/DTD/svg11.dtd">
<svg version="1.1" id="Layer_1" xmlns="http://www.w3.org/2000/svg" xmlns:xlink="http://www.w3.org/1999/xlink" x="0px" y="0px"
	 width="33.369px" height="20px" viewBox="4.99 22.686 33.369 20" enable-background="new 4.99 22.686 33.369 20"
	 xml:space="preserve">
<circle fill="#333333" cx="12.35" cy="26.77" r="2.797"/>
<path fill="#333333" d="M28.365,22.686c-4.71,0-8.659,3.279-9.71,7.671h-3.396l-0.001,0.008l-6.14,0.002
	c-2.7,0-4.127,1.821-4.127,3.679v7.379c-0.005,1.681,2.522,1.681,2.522,0v-7.201h1.215l0.002,8.263h7.383l-0.001-9.236h2.29
	c0.298,5.244,4.646,9.422,9.964,9.422c5.51,0,9.994-4.484,9.994-9.993C38.359,27.169,33.875,22.686,28.365,22.686z M28.365,24.074
	c1.599,0,3.092,0.446,4.376,1.208l-1.914,1.914c-0.752-0.339-1.584-0.533-2.462-0.533c-0.889,0-1.73,0.199-2.491,0.547l-1.912-1.911
	C25.252,24.527,26.754,24.074,28.365,24.074z M22.881,35.141l-1.914,1.914c-0.763-1.285-1.209-2.777-1.209-4.375
	c0-1.61,0.453-3.113,1.225-4.403l1.912,1.911c-0.348,0.761-0.547,1.603-0.547,2.492C22.349,33.557,22.542,34.389,22.881,35.141z
	 M28.365,41.286c-1.621,0-3.134-0.459-4.43-1.242l1.908-1.91c0.769,0.356,1.621,0.562,2.522,0.562c0.889,0,1.732-0.199,2.491-0.547
	l1.912,1.912C31.478,40.833,29.974,41.286,28.365,41.286z M28.365,37.308c-2.363,0-4.315-1.782-4.592-4.072
	c0.378,0.001,0.698,0.001,0.7,0.001c0.852,0,1.542-0.669,1.542-1.494c0-0.825-0.69-1.494-1.542-1.494
	c-0.005,0-0.008,0.001-0.012,0.001l-0.027,0.001c0.816-1.317,2.271-2.199,3.932-2.199c2.552,0,4.628,2.076,4.628,4.628
	C32.993,35.231,30.917,37.308,28.365,37.308z M33.834,35.171c0.348-0.76,0.548-1.602,0.548-2.491c0-0.901-0.206-1.753-0.562-2.521
	l1.909-1.909c0.783,1.296,1.242,2.807,1.242,4.43c0,1.61-0.454,3.113-1.226,4.403L33.834,35.171z"/>
</svg>
