<?xml version="1.0" encoding="utf-8"?>
<!-- Generator: Adobe Illustrator 16.0.4, SVG Export Plug-In . SVG Version: 6.00 Build 0)  -->
<!DOCTYPE svg PUBLIC "-//W3C//DTD SVG 1.1//EN" "http://www.w3.org/Graphics/SVG/1.1/DTD/svg11.dtd">
<svg version="1.1" id="Layer_1" xmlns="http://www.w3.org/2000/svg" xmlns:xlink="http://www.w3.org/1999/xlink" x="0px" y="0px"
	 width="5px" height="15px" viewBox="0 0 5 15" enable-background="new 0 0 5 15" xml:space="preserve">
<g>
	<g>
		<g>
			<g>
				<ellipse fill="#333333" cx="2.5" cy="1.54" rx="1.5" ry="1.54"/>
				<path fill="#333333" d="M5,8.05C5,8.6,4.57,9.04,4.04,9.04H0.96C0.43,9.04,0,8.6,0,8.05V4.48C0,3.94,0.43,3.5,0.96,3.5h3.08
					C4.57,3.5,5,3.94,5,4.48V8.05L5,8.05z"/>
				<path fill="#333333" d="M3.8,14.24C3.8,14.66,3.47,15,3.06,15H1.94c-0.41,0-0.75-0.34-0.75-0.76V9.09
					c0-0.42,0.34-0.76,0.75-0.76h1.12c0.41,0,0.74,0.34,0.74,0.76V14.24z"/>
			</g>
		</g>
	</g>
</g>
</svg>
