<?xml version="1.0" encoding="utf-8"?>
<!-- Generator: Adobe Illustrator 16.0.4, SVG Export Plug-In . SVG Version: 6.00 Build 0)  -->
<!DOCTYPE svg PUBLIC "-//W3C//DTD SVG 1.1//EN" "http://www.w3.org/Graphics/SVG/1.1/DTD/svg11.dtd">
<svg version="1.1" id="Layer_1" xmlns="http://www.w3.org/2000/svg" xmlns:xlink="http://www.w3.org/1999/xlink" x="0px" y="0px"
	 width="19.999px" height="21px" viewBox="0 0 19.999 21" enable-background="new 0 0 19.999 21" xml:space="preserve">
<g>
	<path fill-rule="evenodd" clip-rule="evenodd" fill="#9098A5" d="M8.66,13.88c-2.86,0-5.19-2.34-5.19-5.21S5.8,3.471,8.66,3.471
		c2.869,0,5.199,2.329,5.199,5.199S11.529,13.88,8.66,13.88z M19.359,17.18L15.79,13.6c0.97-1.399,1.54-3.1,1.54-4.93
		C17.33,3.891,13.439,0,8.66,0C3.89,0,0,3.891,0,8.67c0,4.78,3.89,8.67,8.66,8.67c1.32,0,2.57-0.29,3.689-0.82l3.83,3.84
		C16.6,20.77,17.15,21,17.74,21c0.6,0,1.17-0.24,1.6-0.67C20.21,19.46,20.221,18.04,19.359,17.18z"/>
</g>
</svg>
