<svg xmlns="http://www.w3.org/2000/svg" xmlns:xlink="http://www.w3.org/1999/xlink" version="1.1" id="Your_Icon" x="0px" y="0px" width="100px" height="100px" viewBox="0 0 100 100" enable-background="new 0 0 100 100" xml:space="preserve">
<path d="M85.034,33.567c1.764-2.382,2.845-5.302,2.845-8.496c0-7.91-6.416-14.328-14.329-14.328c-2.396,0-4.621,0.643-6.605,1.685  C64.297,5.183,57.364,0,49.204,0c-8.161,0-15.095,5.183-17.741,12.428c-1.984-1.038-4.208-1.685-6.605-1.685  c-7.913,0-14.328,6.418-14.328,14.328c0,3.539,1.331,6.733,3.454,9.233c-4.876,3.745-8.03,9.619-8.03,16.241  c0,11.154,8.918,20.212,20.015,20.472c-6.663-6.187-7.678-15.909-7.722-16.369L17.99,51.97l2.598-0.706  c0.146-0.04,3.619-0.969,8.132-0.969c4.641,0,8.692,0.947,12.062,2.815c2.003-6.264,6.769-10.665,7.022-10.896l2.148-1.955  l2.148,1.955c0.255,0.231,5.018,4.632,7.021,10.895c3.368-1.868,7.416-2.814,12.052-2.814c4.509,0,7.979,0.93,8.124,0.97  l2.806,0.764l-0.5,2.865c-0.079,0.452-1.83,10.023-8.536,16.125c0.161,0.004,0.319,0.022,0.483,0.022  c11.32,0,20.496-9.179,20.496-20.496C94.046,43.481,90.473,37.252,85.034,33.567z"/>
<path d="M59.826,56.401c-1.15,0.732-2.159,1.606-3.068,2.543c0.006-0.15,0.048-0.288,0.048-0.439c0-7.691-6.854-13.93-6.854-13.93  s-6.855,6.239-6.855,13.93c0,0.151,0.042,0.289,0.048,0.439c-0.91-0.937-1.918-1.811-3.071-2.543  c-7.842-4.993-18.649-2.058-18.649-2.058s1.185,11.036,9.03,16.035C36.035,73.931,43,73.468,46,72.907v24.598  c0,1.319,1.681,2.389,3,2.389c1.321,0,3-1.069,3-2.389V72.867c3,0.576,10.908,1.146,16.62-2.488  c7.845-4.999,9.806-16.035,9.806-16.035S67.671,51.408,59.826,56.401z"/>
</svg>